<svg xmlns="http://www.w3.org/2000/svg" viewBox="0 0 127.75 128.14"><defs><style>.cls-1{fill:#00b0f0;}</style></defs><g id="Layer_2" data-name="Layer 2"><g id="Layer_1-2" data-name="Layer 1"><g id="Layer_2-2" data-name="Layer 2"><g id="Layer_1-2-2" data-name="Layer 1-2"><g id="Layer_2-2-2" data-name="Layer 2-2"><path class="cls-1" d="M61.16,20.94,2,66.43a4.17,4.17,0,0,0-.8,5.84l.06.09a4.19,4.19,0,0,0,5.86.8l.07-.06,59.3-45.49a4.17,4.17,0,0,0,.81-5.84l-.07-.09h0a4.44,4.44,0,0,0-6-.74Z"/><path class="cls-1" d="M72,38.17a4.16,4.16,0,0,0-5.84-.81l-.09.07L2,86.63a4.17,4.17,0,0,0-.8,5.84l.06.09a4.18,4.18,0,0,0,5.85.81l.08-.07L71.26,44.1A4.34,4.34,0,0,0,72,38.17Z"/><path class="cls-1" d="M.84,52.26a4.18,4.18,0,0,0,5.85.81L6.77,53h0L63.47,9.54,95.81,34.28l-24,18.44a4.21,4.21,0,0,0,4.63,7,1.71,1.71,0,0,0,.47-.37l28.35-21.77h0l.28-.28h0l.46-.46a4.34,4.34,0,0,0-.74-5.93L66.07.83A3.9,3.9,0,0,0,64,0H63a4.36,4.36,0,0,0-2,.83L1.67,46.33A4.27,4.27,0,0,0,.84,52.26Z"/><path class="cls-1" d="M120.73,55,61.44,100.53a4.16,4.16,0,0,0-.83,5.82l.08.11h0a4.18,4.18,0,0,0,5.85.81l.08-.07,59.3-45.49a4.17,4.17,0,0,0,.81-5.84l-.07-.09a4.35,4.35,0,0,0-5.93-.74Z"/><path class="cls-1" d="M55.78,90a4.18,4.18,0,0,0,5.85.81l.08-.07,64.21-49.2A4.23,4.23,0,0,0,121,34.63l-.31.24L56.62,84a4.27,4.27,0,0,0-.87,6Z"/><path class="cls-1" d="M126.94,76h0a4.16,4.16,0,0,0-5.84-.81l-.09.07-56.7,43.46L32,93.86,56,75.42a4.23,4.23,0,0,0-4.88-6.91l-.31.24L22.43,90.52h0l-.28.28h0l-.46.46a4.36,4.36,0,0,0,.74,5.93L61.71,127.3a4,4,0,0,0,2,.84h1.11a4.4,4.4,0,0,0,2-.84l59.3-45.49A4.21,4.21,0,0,0,126.94,76Z"/></g></g></g></g></g></svg>